<svg fill="#000000" version="1.1" id="Capa_1" xmlns="http://www.w3.org/2000/svg" xmlns:xlink="http://www.w3.org/1999/xlink" viewBox="0 0 923.111 923.11" xml:space="preserve" transform="matrix(-1, 0, 0, 1, 0, 0)rotate(270)" stroke="#000000" stroke-width="0.00923111"><g id="SVGRepo_bgCarrier" stroke-width="0"></g><g id="SVGRepo_tracerCarrier" stroke-linecap="round" stroke-linejoin="round"></g><g id="SVGRepo_iconCarrier"> <g> <path d="M863.921,147.081L734.009,15.601c-9.786-9.905-23.106-15.516-37.03-15.599c-13.917-0.082-27.311,5.367-37.216,15.154 l-133.27,131.682c-20.625,20.379-20.824,53.62-0.445,74.245c10.27,10.393,23.807,15.6,37.348,15.6 c13.331,0,26.666-5.045,36.897-15.155l41.743-41.245c-3.249,19.152-8.911,42.661-18.748,68.262 c-14.476,37.678-35.13,72.664-61.388,103.987c-27.342,32.615-61.024,61.475-100.347,86.074 c-39.321-24.599-73.005-53.459-100.346-86.074c-26.258-31.323-46.912-66.309-61.388-103.987 c-9.836-25.601-15.498-49.11-18.748-68.262l41.743,41.245c10.231,10.11,23.566,15.155,36.897,15.155 c13.541,0,27.078-5.207,37.348-15.6c20.379-20.625,20.18-53.866-0.445-74.245L263.346,15.155 C253.44,5.369,240.047-0.081,226.13,0.001C212.207,0.084,198.887,5.696,189.1,15.6L59.188,147.081 c-20.379,20.625-20.18,53.865,0.445,74.245c20.625,20.379,53.865,20.18,74.245-0.445l40.857-41.35 c3.403,26.899,10.493,61.944,24.98,101.124c18.28,49.439,44.703,95.309,78.536,136.335c24.949,30.254,53.931,57.836,86.629,82.494 c-32.698,24.659-61.68,52.242-86.629,82.495c-33.833,41.026-60.256,86.896-78.536,136.335 c-30.875,83.504-28.155,148.229-27.743,155.333c1.618,27.913,24.759,49.463,52.364,49.463c1.022,0,2.053-0.029,3.086-0.09 c28.946-1.678,51.053-26.504,49.374-55.45c-0.027-0.475-2.097-49.287,21.402-112.843c14.188-38.375,34.732-74.02,61.06-105.944 c27.697-33.587,62.038-63.231,102.297-88.416c40.259,25.185,74.601,54.829,102.298,88.416 c26.326,31.925,46.87,67.569,61.06,105.944c23.499,63.554,21.429,112.367,21.402,112.843c-1.679,28.946,20.427,53.772,49.374,55.45 c1.032,0.061,2.063,0.09,3.086,0.09c27.605,0,50.746-21.551,52.363-49.463c0.412-7.104,3.134-71.83-27.742-155.333 c-18.28-49.438-44.703-95.309-78.536-136.335c-24.949-30.254-53.932-57.836-86.629-82.495 c32.697-24.658,61.68-52.241,86.629-82.494c33.833-41.026,60.256-86.896,78.536-136.335c14.486-39.18,21.577-74.224,24.979-101.124 l40.857,41.35c20.379,20.625,53.62,20.825,74.245,0.445C884.102,200.946,884.3,167.706,863.921,147.081z"></path> </g> </g></svg>