<?xml version="1.0" encoding="UTF-8"?>
<svg version="1.1" xmlns="http://www.w3.org/2000/svg" width="512" height="512">
<path d="M0 0 C2.39085388 1.70069885 2.39085388 1.70069885 4.95874023 4.16235352 C5.70907988 4.87575189 5.70907988 4.87575189 6.4745779 5.60356236 C8.33318626 7.38580394 10.16748375 9.1909382 12 11 C12.75878071 11.74587749 13.51756142 12.49175499 14.29933548 13.26023483 C20.46583845 19.33259186 26.58935301 25.44732487 32.70505452 31.57072902 C35.38066955 34.24890604 38.05875776 36.92460831 40.73643494 39.60072327 C45.22053557 44.0830158 49.7025483 48.56738793 54.18334961 53.05297852 C59.35759726 58.23269283 64.53547318 63.40875924 69.71519572 68.58299822 C74.18183425 73.0450984 78.64652094 77.50914451 83.10958189 81.97482306 C85.76721861 84.63401516 88.42551796 87.29253541 91.08558846 89.94929314 C94.04178046 92.90205872 96.9938677 95.85889511 99.94555664 98.81616211 C100.82293991 99.69152115 101.70032318 100.56688019 102.60429382 101.46876526 C103.40724884 102.2745401 104.21020386 103.08031494 105.03749084 103.9105072 C106.08293108 104.95651297 106.08293108 104.95651297 107.14949131 106.02365017 C110.41283373 109.50891142 112.4541397 111.87271517 112.625 116.75 C112.43596699 120.84606022 111.76368736 122.83062807 108.96115589 125.81997013 C108.32341728 126.5073382 107.68567867 127.19470627 107.02861464 127.90290368 C106.35917181 128.59494546 105.68972898 129.28698725 105 130 C104.37661881 130.64863569 103.75323762 131.29727138 103.11096609 131.9655627 C101.09008011 134.0383955 99.04672719 136.08666515 96.99650574 138.13047791 C96.2201445 138.90839913 95.44378326 139.68632036 94.64389592 140.48781496 C92.06077824 143.07489818 89.47412876 145.65841986 86.88745117 148.24194336 C85.02741094 150.10333954 83.16756624 151.96492925 81.30795288 153.82675171 C76.79377844 158.34535752 72.27692347 162.86127446 67.75908019 167.37621175 C64.0889468 171.04408242 60.4197959 174.71293325 56.75133705 178.38247871 C56.22831965 178.90564935 55.70530225 179.42881998 55.16643584 179.96784427 C54.10386281 181.03073703 53.04129202 182.09363204 51.97872344 183.15652926 C42.03255611 193.10554322 32.0833343 203.0514981 22.133054 212.99639834 C13.59160051 221.53337665 5.05278327 230.0729844 -3.48413086 238.61450195 C-13.40390806 248.53962578 -23.32529892 258.46313192 -33.24928683 268.38404566 C-34.30633194 269.44077222 -35.36337497 270.49750088 -36.42041588 271.55423164 C-36.94048638 272.07414787 -37.46055688 272.5940641 -37.9963871 273.12973536 C-41.66533765 276.79782161 -45.33312477 280.46706874 -49.0004673 284.13676262 C-53.92860817 289.06799391 -58.85938109 293.99658005 -63.79196548 298.92336655 C-65.60613231 300.73620603 -67.41943929 302.54990644 -69.23184395 304.36450768 C-71.69607527 306.83145122 -74.16333306 309.29532632 -76.63142395 311.75840759 C-77.71860701 312.84893674 -77.71860701 312.84893674 -78.82775337 313.96149677 C-79.48578033 314.61691599 -80.1438073 315.27233521 -80.82177448 315.94761562 C-81.39135767 316.51703646 -81.96094086 317.0864573 -82.54778415 317.67313331 C-85.65789637 320.51479373 -88.93756268 320.80322495 -93.02845764 320.65174866 C-96.77061033 319.83098197 -98.19586739 318.48622119 -100.95874023 315.83764648 C-101.70907988 315.12424811 -101.70907988 315.12424811 -102.4745779 314.39643764 C-104.33318626 312.61419606 -106.16748375 310.8090618 -108 309 C-108.75878071 308.25412251 -109.51756142 307.50824501 -110.29933548 306.73976517 C-116.46583845 300.66740814 -122.58935301 294.55267513 -128.70505452 288.42927098 C-131.38066955 285.75109396 -134.05875776 283.07539169 -136.73643494 280.39927673 C-141.22053557 275.9169842 -145.7025483 271.43261207 -150.18334961 266.94702148 C-155.35759726 261.76730717 -160.53547318 256.59124076 -165.71519572 251.41700178 C-170.18183425 246.9549016 -174.64652094 242.49085549 -179.10958189 238.02517694 C-181.76721861 235.36598484 -184.42551796 232.70746459 -187.08558846 230.05070686 C-190.04178046 227.09794128 -192.9938677 224.14110489 -195.94555664 221.18383789 C-196.82293991 220.30847885 -197.70032318 219.43311981 -198.60429382 218.53123474 C-199.80872635 217.32257248 -199.80872635 217.32257248 -201.03749084 216.0894928 C-201.734451 215.39215562 -202.43141115 214.69481844 -203.14949131 213.97634983 C-206.41283373 210.49108858 -208.4541397 208.12728483 -208.625 203.25 C-208.43596699 199.15393978 -207.76368736 197.16937193 -204.96115589 194.18002987 C-204.00454797 193.14897776 -204.00454797 193.14897776 -203.02861464 192.09709632 C-202.02445039 191.05903364 -202.02445039 191.05903364 -201 190 C-200.06492821 189.02704646 -200.06492821 189.02704646 -199.11096609 188.0344373 C-197.09008011 185.9616045 -195.04672719 183.91333485 -192.99650574 181.86952209 C-192.2201445 181.09160087 -191.44378326 180.31367964 -190.64389592 179.51218504 C-188.06077824 176.92510182 -185.47412876 174.34158014 -182.88745117 171.75805664 C-181.02741094 169.89666046 -179.16756624 168.03507075 -177.30795288 166.17324829 C-172.79377844 161.65464248 -168.27692347 157.13872554 -163.75908019 152.62378825 C-160.0889468 148.95591758 -156.4197959 145.28706675 -152.75133705 141.61752129 C-152.22831965 141.09435065 -151.70530225 140.57118002 -151.16643584 140.03215573 C-150.10386281 138.96926297 -149.04129202 137.90636796 -147.97872344 136.84347074 C-138.03255611 126.89445678 -128.0833343 116.9485019 -118.133054 107.00360166 C-109.59160051 98.46662335 -101.05278327 89.9270156 -92.51586914 81.38549805 C-82.59609194 71.46037422 -72.67470108 61.53686808 -62.75071317 51.61595434 C-61.69366806 50.55922778 -60.63662503 49.50249912 -59.57958412 48.44576836 C-59.05951362 47.92585213 -58.53944312 47.4059359 -58.0036129 46.87026464 C-54.33466235 43.20217839 -50.66687523 39.53293126 -46.9995327 35.86323738 C-42.07139183 30.93200609 -37.14061891 26.00341995 -32.20803452 21.07663345 C-30.39386769 19.26379397 -28.58056071 17.45009356 -26.76815605 15.63549232 C-24.30392473 13.16854878 -21.83666694 10.70467368 -19.36857605 8.24159241 C-18.64378734 7.51457298 -17.91899864 6.78755355 -17.17224663 6.03850323 C-16.51421967 5.38308401 -15.8561927 4.72766479 -15.17822552 4.05238438 C-14.32385073 3.19825312 -14.32385073 3.19825312 -13.45221585 2.32686669 C-9.56526041 -1.22458311 -4.90657744 -1.07616008 0 0 Z M-10.70937639 31.58029509 C-11.72638106 32.60166901 -11.72638106 32.60166901 -12.76393127 33.64367676 C-13.47940736 34.35829842 -14.19488345 35.07292008 -14.93204063 35.80919695 C-17.34974177 38.22523956 -19.76383104 40.64486 -22.17797852 43.06445312 C-23.90202736 44.78878379 -25.62629593 46.51289479 -27.35076904 48.23680115 C-31.0736743 51.95947804 -34.79503383 55.68368989 -38.51501656 59.4092865 C-43.89355375 64.79593526 -49.27483546 70.17983527 -54.65680074 75.56305867 C-63.38765855 84.29610755 -72.11627879 93.03138933 -80.84350586 101.76806641 C-89.32345714 110.25719041 -97.80445339 118.74526818 -106.28686523 127.23193359 C-107.07055749 128.01601993 -107.07055749 128.01601993 -107.87008191 128.8159464 C-110.49100656 131.43817605 -113.11195185 134.06038506 -115.73290741 136.68258381 C-137.49180676 158.45185745 -159.24704341 180.22478799 -181 202 C-177.79895447 205.78545654 -174.60000507 209.52552046 -171.08950806 213.03074646 C-170.37447113 213.74715805 -169.6594342 214.46356964 -168.92272949 215.20169067 C-168.15883911 215.96198578 -167.39494873 216.72228088 -166.60791016 217.50561523 C-165.78773407 218.32593735 -164.96755798 219.14625946 -164.12252808 219.99143982 C-161.43040493 222.6828703 -158.73476475 225.37074847 -156.0390625 228.05859375 C-154.16411824 229.93167153 -152.28937215 231.80494556 -150.41488647 233.67848206 C-145.99718043 238.09309132 -141.57693357 242.50514725 -137.15574777 246.91627127 C-132.11864834 251.94215801 -127.08441902 256.97091548 -122.05041814 261.99990547 C-111.7034493 272.33644737 -101.35284552 282.66934414 -91 293 C-86.0158936 288.8216305 -81.32925319 284.47047665 -76.74232483 279.86257935 C-76.04622351 279.16733245 -75.35012218 278.47208555 -74.63292688 277.75577056 C-72.31678919 275.44127111 -70.00422779 273.12323215 -67.69165039 270.80517578 C-66.0258293 269.13907244 -64.35978762 267.47318963 -62.69354248 265.80751038 C-58.18152862 261.29578299 -53.67260097 256.78098275 -49.16422582 252.26561975 C-44.92627612 248.02204615 -40.68601447 243.78078446 -36.44576602 239.53950809 C-28.05099612 231.14255325 -19.65845866 222.74337085 -11.26733398 214.34277344 C-3.11942188 206.18567277 5.02954696 198.02963016 13.17993164 189.875 C13.68289483 189.37177409 14.18585802 188.86854818 14.70406251 188.35007299 C17.22745888 185.82537153 19.75087595 183.30069076 22.27430332 180.77602029 C43.1860801 159.85388827 64.0941932 138.92809737 85 118 C81.79982406 114.21633359 78.601591 110.47676468 75.09623718 106.96925354 C74.38264542 106.25284195 73.66905365 105.53643036 72.93383789 104.79830933 C72.17151855 104.03801422 71.40919922 103.27771912 70.6237793 102.49438477 C69.8052095 101.67406265 68.98663971 100.85374054 68.14326477 100.00856018 C65.4560809 97.31699974 62.76528558 94.62908401 60.07421875 91.94140625 C58.20174256 90.06825621 56.32941454 88.194959 54.45722961 86.32151794 C50.5444888 82.40696426 46.62965802 78.49451003 42.71362305 74.58325195 C38.18208482 70.0571775 33.654191 65.52748107 29.12812871 60.99593121 C24.7691962 56.63192524 20.40747114 52.2707218 16.04453468 47.91071892 C14.18854062 46.05539398 12.33329472 44.1993203 10.47879601 42.34250069 C7.89801693 39.75919893 5.31408343 37.17909565 2.72924805 34.59985352 C1.95680756 33.82538879 1.18436707 33.05092407 0.38851929 32.25299072 C-0.31097336 31.5563179 -1.010466 30.85964508 -1.7311554 30.14186096 C-2.34188558 29.53150781 -2.95261576 28.92115465 -3.58185291 28.29230595 C-6.74507623 25.40977539 -8.26151509 29.14040293 -10.70937639 31.58029509 Z " fill="#000000" transform="translate(304,96)"/>
<path d="M0 0 C3.34625024 2.52676039 4.67977847 4.03933542 6 8 C9.04971587 56.15714129 -11.19467963 106.57353616 -42.37939453 142.59326172 C-45.50655036 146.14033403 -48.73417719 149.5804366 -52 153 C-52.87269531 153.92554688 -53.74539063 154.85109375 -54.64453125 155.8046875 C-61.5661123 162.95935254 -68.99140769 169.12355125 -77 175 C-77.55574707 175.41072754 -78.11149414 175.82145508 -78.68408203 176.24462891 C-115.13101381 202.80692172 -155.89220182 212.12351673 -200 215 C-199.37955811 215.61520508 -198.75911621 216.23041016 -198.11987305 216.86425781 C-195.80875705 219.15828328 -193.49993731 221.45458879 -191.19262695 223.75244141 C-190.19548833 224.74456603 -189.19745212 225.73578939 -188.19848633 226.72607422 C-186.75883147 228.15353469 -185.3224863 229.58425593 -183.88671875 231.015625 C-183.02264404 231.87446289 -182.15856934 232.73330078 -181.26831055 233.61816406 C-177.68777172 237.37790326 -175.57067539 239.63166974 -175.5625 244.9375 C-175.66438781 248.57328593 -175.91978129 249.8689761 -177.875 253.0625 C-181.36811586 256.24739975 -184.34365658 256.80989497 -189.00805664 256.67236328 C-192.86785577 255.80497146 -194.43914117 254.24386266 -197.28515625 251.5078125 C-197.7909874 251.02633759 -198.29681854 250.54486267 -198.81797791 250.04879761 C-200.55977588 248.38016914 -202.28065614 246.69174605 -204 245 C-204.64727051 244.36835938 -205.29454102 243.73671875 -205.96142578 243.0859375 C-210.28215348 238.86698283 -214.56970964 234.61606674 -218.83959961 230.34570312 C-221.08493665 228.10258553 -223.33820982 225.86763793 -225.59179688 223.6328125 C-227.03173757 222.19580089 -228.47120831 220.75831819 -229.91015625 219.3203125 C-230.91321556 218.32803146 -230.91321556 218.32803146 -231.9365387 217.31570435 C-240.37784693 208.83262404 -240.37784693 208.83262404 -240.625 202.6875 C-240.41733826 198.88035084 -239.62786011 197.08808374 -237.04614258 194.30053711 C-236.40907379 193.60878387 -235.772005 192.91703064 -235.1156311 192.20431519 C-231.33104358 188.26108343 -227.50617551 184.36395494 -223.63671875 180.50390625 C-222.76352493 179.62975571 -221.89033112 178.75560516 -220.99067688 177.85496521 C-219.15899384 176.02260573 -217.32606365 174.19149216 -215.49194336 172.36157227 C-213.6115357 170.48476598 -211.73253517 168.60669452 -209.85620117 166.72583008 C-207.13986795 164.00334649 -204.42012689 161.28431677 -201.69921875 158.56640625 C-200.85654953 157.7217128 -200.01388031 156.87701935 -199.14567566 156.00672913 C-197.9785479 154.84432961 -197.9785479 154.84432961 -196.7878418 153.65844727 C-196.10280075 152.97420181 -195.4177597 152.28995636 -194.71195984 151.5849762 C-191.70102059 148.79737165 -189.17125909 148.67000219 -185.10546875 148.70703125 C-181.72406053 149.1775426 -179.57745864 150.86259528 -177 153 C-175.82993144 155.34013712 -175.66163594 157.01457952 -175.5 159.625 C-175.39171875 160.85089844 -175.39171875 160.85089844 -175.28125 162.1015625 C-176.44394876 166.79027162 -179.68822148 169.60056354 -183 173 C-183.71591309 173.73686035 -184.43182617 174.4737207 -185.16943359 175.23291016 C-187.40853062 177.50628158 -189.66861031 179.756385 -191.9375 182 C-193.10635742 183.16208984 -193.10635742 183.16208984 -194.29882812 184.34765625 C-196.1969242 186.23410757 -198.09733149 188.11816245 -200 190 C-176.41483378 197.86172207 -138.19986252 182.44600622 -117.22607422 172.12158203 C-84.95145447 155.86038406 -59.18067265 131.08732627 -41 100 C-40.46463623 99.09411133 -40.46463623 99.09411133 -39.91845703 98.16992188 C-25.61210178 73.68314003 -18.31954517 45.54937916 -17.42871094 17.30200195 C-17.2049548 11.57886 -16.75286357 6.13630247 -13 1.5625 C-8.66664502 -0.69445572 -4.78553156 -0.92724585 0 0 Z " fill="#000000" transform="translate(464,256)"/>
<path d="M0 0 C2.57446289 1.8840332 2.57446289 1.8840332 5.28515625 4.48828125 C5.7909874 4.96954971 6.29681854 5.45081818 6.81797791 5.94667053 C8.56050573 7.61614436 10.28138677 9.3059269 12 11 C12.97090576 11.95099579 12.97090576 11.95099579 13.96142578 12.92120361 C18.28066516 17.1575882 22.56777034 21.42507894 26.83959961 25.70922852 C29.08657606 27.96163423 31.33894065 30.20855493 33.59179688 32.45507812 C35.03157129 33.89551226 36.47103606 35.33625598 37.91015625 36.77734375 C38.57886246 37.44402573 39.24756866 38.1107077 39.9365387 38.79759216 C40.86912758 39.73490929 40.86912758 39.73490929 41.82055664 40.69116211 C42.3639418 41.23534286 42.90732697 41.77952362 43.46717834 42.3401947 C46.58869724 45.72030979 48.46054304 48.05550139 48.625 52.75 C48.43052936 56.78965584 47.81027878 58.78244035 45.04614258 61.73461914 C44.40907379 62.42129669 43.772005 63.10797424 43.1156311 63.81546021 C42.41747284 64.53635834 41.71931458 65.25725647 41 66 C39.92968033 67.10902176 39.92968033 67.10902176 38.83773804 68.240448 C36.45488291 70.67699712 34.04949697 73.08918188 31.63671875 75.49609375 C30.76352493 76.37024429 29.89033112 77.24439484 28.99067688 78.14503479 C27.15899384 79.97739427 25.32606365 81.80850784 23.49194336 83.63842773 C21.6115357 85.51523402 19.73253517 87.39330548 17.85620117 89.27416992 C15.13986795 91.99665351 12.42012689 94.71568323 9.69921875 97.43359375 C8.85654953 98.2782872 8.01388031 99.12298065 7.14567566 99.99327087 C5.9785479 101.15567039 5.9785479 101.15567039 4.7878418 102.34155273 C4.10280075 103.02579819 3.4177597 103.71004364 2.71195984 104.4150238 C-0.29897941 107.20262835 -2.82874091 107.32999781 -6.89453125 107.29296875 C-10.27593947 106.8224574 -12.42254136 105.13740472 -15 103 C-16.17006856 100.65986288 -16.33836406 98.98542048 -16.5 96.375 C-16.5721875 95.55773437 -16.644375 94.74046875 -16.71875 93.8984375 C-15.55605124 89.20972838 -12.31177852 86.39943646 -9 83 C-7.92613037 81.89470947 -7.92613037 81.89470947 -6.83056641 80.76708984 C-4.59146938 78.49371842 -2.33138969 76.243615 -0.0625 74 C0.71673828 73.22527344 1.49597656 72.45054688 2.29882812 71.65234375 C4.1969242 69.76589243 6.09733149 67.88183755 8 66 C-17.37528934 58.24931136 -56.51061839 74.23656959 -78.77294922 85.79980469 C-94.84120654 94.45926018 -108.82282492 105.45121621 -122 118 C-122.70640625 118.65355469 -123.4128125 119.30710937 -124.140625 119.98046875 C-155.56912869 149.93975377 -171.8650223 193.57367295 -174.31762695 236.15698242 C-175.13011692 249.72108 -175.13011692 249.72108 -179 254.4375 C-183.33335498 256.69445572 -187.21446844 256.92724585 -192 256 C-195.34625024 253.47323961 -196.67977847 251.96066458 -198 248 C-201.04971587 199.84285871 -180.80532037 149.42646384 -149.62060547 113.40673828 C-146.49344964 109.85966597 -143.26582281 106.4195634 -140 103 C-139.12730469 102.07445313 -138.25460938 101.14890625 -137.35546875 100.1953125 C-130.43537848 93.04218844 -123.01186063 86.86973298 -115 81 C-114.43361816 80.58395508 -113.86723633 80.16791016 -113.28369141 79.73925781 C-76.80391577 53.33983338 -36.08724861 43.87514313 8 41 C7.37955811 40.39003174 6.75911621 39.78006348 6.11987305 39.15161133 C3.80670973 36.87265935 1.49817842 34.58914064 -0.80737305 32.30249023 C-1.80360433 31.31627782 -2.80162829 30.33187271 -3.80151367 29.34936523 C-5.24359733 27.93171149 -6.67897564 26.50754885 -8.11328125 25.08203125 C-8.97735596 24.22843018 -9.84143066 23.3748291 -10.73168945 22.49536133 C-14.98988311 17.81093582 -16.56096637 14.39893799 -16.36328125 8.15625 C-15.82073377 4.9359682 -14.3380273 3.20049629 -12 1 C-7.97906858 -1.01046571 -4.34348327 -0.97573312 0 0 Z " fill="#000000" transform="translate(240,0)"/>
</svg>
