<svg xmlns="http://www.w3.org/2000/svg" shape-rendering="geometricPrecision" text-rendering="geometricPrecision" image-rendering="optimizeQuality" fill-rule="evenodd" clip-rule="evenodd" viewBox="0 0 504 512.36"><path fill-rule="nonzero" d="M499.43 231.36H368.4c-2.53 0-4.58-2.05-4.58-4.57v-8.11c0-1.26.52-2.4 1.34-3.22l71.57-82.53c6.73-7.75 12.57-14.97 17.48-21.68 4.88-6.64 8.83-12.74 11.85-18.28 2.97-5.43 5.18-10.61 6.64-15.55 1.42-4.85 2.13-9.53 2.13-14 0-14.68-3.98-26.05-11.92-34.09-3.92-3.96-8.75-6.93-14.49-8.92-5.95-2.03-12.91-3.05-20.87-3.05-8.45 0-15.88 1.21-22.29 3.62-6.27 2.36-11.63 5.92-16.07 10.63a47.884 47.884 0 0 0-10.14 16.6c-2.27 6.29-3.41 13.39-3.41 21.26 0 2.52-2.05 4.57-4.57 4.57h-6.89c-2.05 0-3.8-1.36-4.37-3.24l-.27-.82c-.18-.56-.25-1.13-.22-1.67-.23-9.32 1.14-17.99 4.12-25.97 3.02-8.13 7.68-15.54 13.94-22.19 6.26-6.7 13.63-11.76 22.1-15.13C407.84 1.68 417.2 0 427.55 0c9.59 0 18.26 1.38 26.03 4.13 7.86 2.79 14.77 7 20.72 12.61 6.02 5.63 10.55 12.4 13.55 20.28 2.96 7.75 4.45 16.56 4.45 26.4 0 6.5-1.07 13.08-3.17 19.69l-.14.38c-2.09 6.46-5.17 12.97-9.2 19.49l-.14.21c-4.08 6.51-8.9 13.43-14.43 20.74-5.56 7.33-11.96 15.23-19.22 23.67l-56.91 66.51h110.34c2.52 0 4.57 2.05 4.57 4.57v8.11c0 2.52-2.05 4.57-4.57 4.57zm-327.25 68.75 137.96-167.76c.89-1.07 2.3-1.65 3.74-1.65l20.13-.02c2.52 0 4.57 1.74 4.57 3.88 0 .91-.37 1.75-.98 2.41L188.32 317.66 344.1 506.24c1.45 1.75.95 4.17-1.1 5.4-.8.48-1.72.71-2.63.71l-20.13.01c-1.7 0-3.18-.79-3.97-1.96l-144.1-175.2L28.23 510.69c-.88 1.07-2.3 1.64-3.73 1.65l-19.93.02c-2.52 0-4.57-1.74-4.57-3.89 0-.9.37-1.74.98-2.4l155.65-188.4L6.9 136.8c-1.45-1.75-.95-4.18 1.11-5.41.79-.47 1.71-.7 2.62-.7l20.44-.01c1.63 0 3.06.72 3.87 1.81l137.24 167.62z"/></svg>